<svg width="366" height="366" viewBox="0 0 366 366" fill="none" xmlns="http://www.w3.org/2000/svg">
<path fill-rule="evenodd" clip-rule="evenodd" d="M99.5 293C109.717 293 118 301.283 118 311.5C118 321.717 109.717 330 99.5 330C89.2827 330 81 321.717 81 311.5C81 301.283 89.2827 293 99.5 293ZM99.5 299C92.5964 299 87 304.596 87 311.5C87 318.404 92.5964 324 99.5 324C106.404 324 112 318.404 112 311.5C112 304.596 106.404 299 99.5 299Z" fill="white"/>
<path fill-rule="evenodd" clip-rule="evenodd" d="M245.5 291C256.27 291 265 299.73 265 310.5C265 321.27 256.27 330 245.5 330C234.73 330 226 321.27 226 310.5C226 299.73 234.73 291 245.5 291ZM245.5 297C238.044 297 232 303.044 232 310.5C232 317.956 238.044 324 245.5 324C252.956 324 259 317.956 259 310.5C259 303.044 252.956 297 245.5 297Z" fill="white"/>
<path fill-rule="evenodd" clip-rule="evenodd" d="M168.5 284C178.165 284 186 291.835 186 301.5C186 311.165 178.165 319 168.5 319C158.835 319 151 311.165 151 301.5C151 291.835 158.835 284 168.5 284ZM168.5 290C162.149 290 157 295.149 157 301.5C157 307.851 162.149 313 168.5 313C174.851 313 180 307.851 180 301.5C180 295.149 174.851 290 168.5 290Z" fill="white"/>
<path fill-rule="evenodd" clip-rule="evenodd" d="M288.5 235C298.165 235 306 242.835 306 252.5C306 262.165 298.165 270 288.5 270C278.835 270 271 262.165 271 252.5C271 242.835 278.835 235 288.5 235ZM288.5 241C282.149 241 277 246.149 277 252.5C277 258.851 282.149 264 288.5 264C294.851 264 300 258.851 300 252.5C300 246.149 294.851 241 288.5 241Z" fill="white"/>
<path fill-rule="evenodd" clip-rule="evenodd" d="M186.5 68C210.803 68 232.734 78.5655 248.65 95.5068C268.63 86.7276 286.287 80.4498 299.962 77.3691C307.212 75.7359 313.702 74.9164 318.975 75.2705C323.809 75.5952 329.293 77.0454 332.307 81.6787L332.591 82.1367L332.792 82.4932C334.799 86.1826 334.486 90.2572 333.414 93.7461C332.303 97.3637 330.151 101.16 327.404 104.99C321.883 112.688 313.081 121.709 301.912 131.449C294.002 138.348 284.785 145.705 274.5 153.326C274.828 156.671 275 160.065 275 163.5C275 215.774 235.828 259 186.5 259C165.028 259 145.391 250.747 130.13 237.129C121.68 240.798 113.693 243.999 106.288 246.681C92.3546 251.727 80.1971 255.052 70.7881 256.149C66.1064 256.695 61.7429 256.736 58.04 255.954C54.4688 255.2 50.753 253.498 48.499 249.954L48.2852 249.605C45.1995 244.367 46.887 238.344 49.2451 233.621C51.7624 228.58 56.0367 222.968 61.5059 217.035C70.6412 207.126 83.812 195.579 99.9014 183.284C98.6543 176.896 98 170.277 98 163.5C98 111.226 137.172 68 186.5 68ZM268.323 151.982C266.796 153.098 265.244 154.217 263.672 155.343C263.889 158.029 264 160.75 264 163.5C264 212.468 228.849 252.249 185.236 252.988C185.334 252.99 185.432 252.993 185.529 252.994L186.5 253C231.707 253 268.422 213.553 268.993 164.657L269 163.5C269 159.597 268.77 155.753 268.323 151.982ZM106.505 185.806C69.6109 213.589 47.9867 237.277 53.4551 246.561C58.8565 255.73 89.3617 248.594 130.761 230.304C127.884 227.433 125.195 224.332 122.715 221.028C97.8941 231.25 80.3886 235.031 76.7832 229.845L76.6367 229.616C73.3 223.95 85.8453 209.75 108.182 192.134C107.555 190.058 106.996 187.947 106.505 185.806ZM105.496 202.024C98.5884 207.771 93.0034 212.976 88.9531 217.429C85.7308 220.971 83.7293 223.769 82.7354 225.778C82.6761 225.898 82.6229 226.011 82.5742 226.117C83.8493 226.217 85.7263 226.144 88.2988 225.744C94.3922 224.798 102.947 222.282 113.478 218.249C113.61 218.198 113.742 218.146 113.875 218.095C110.624 213.067 107.812 207.688 105.496 202.024ZM186.5 74C186.076 74 185.653 74.0038 185.23 74.0107C221.132 74.6163 251.298 101.679 260.847 138.544C262.212 137.454 263.541 136.381 264.827 135.32C261.957 125.926 257.596 117.073 251.967 109.029C273.623 100.683 288.528 98.0302 291.49 103.059C294.769 108.625 282.718 122.425 261.116 139.611C262.257 144.232 263.076 149.003 263.542 153.892C306.947 122.746 333.404 95.3413 327.421 85.1826C321.89 75.7926 290.02 83.4862 247.097 102.764L246.385 101.939C231.35 84.7322 210.08 74 186.5 74ZM285.551 106.555C284.246 106.453 282.32 106.535 279.678 106.954C274.887 107.713 268.604 109.429 261.062 112.072C263.718 116.559 266.024 121.247 267.948 126.102C274.432 120.392 279.32 115.411 282.449 111.381C284.046 109.324 285.02 107.718 285.551 106.555Z" fill="white"/>
<path fill-rule="evenodd" clip-rule="evenodd" d="M75.5 155C85.165 155 93 162.835 93 172.5C93 182.165 85.165 190 75.5 190C70.0238 190 65.1357 187.484 61.9268 183.546C59.4653 190.231 53.0398 195 45.5 195C35.835 195 28 187.165 28 177.5C28 167.835 35.835 160 45.5 160C50.9757 160 55.8634 162.515 59.0723 166.453C61.5338 159.768 67.9604 155 75.5 155ZM45.5 166C39.1487 166 34 171.149 34 177.5C34 183.851 39.1487 189 45.5 189C51.8513 189 57 183.851 57 177.5C57 171.149 51.8513 166 45.5 166ZM75.5 161C69.1487 161 64 166.149 64 172.5C64 178.851 69.1487 184 75.5 184C81.8513 184 87 178.851 87 172.5C87 166.149 81.8513 161 75.5 161Z" fill="white"/>
<path fill-rule="evenodd" clip-rule="evenodd" d="M97.5 82C107.165 82 115 89.835 115 99.5C115 109.165 107.165 117 97.5 117C87.835 117 80 109.165 80 99.5C80 89.835 87.835 82 97.5 82ZM97.5 88C91.1487 88 86 93.1487 86 99.5C86 105.851 91.1487 111 97.5 111C103.851 111 109 105.851 109 99.5C109 93.1487 103.851 88 97.5 88Z" fill="white"/>
<path d="M115.38 187.841C118.46 198.625 123.534 208.445 130.128 216.787C127.528 217.927 124.993 219.007 122.531 220.023C116.546 212.06 111.799 202.96 108.608 193.066C110.773 191.357 113.032 189.613 115.38 187.841Z" fill="#003448"/>
<path d="M109 99.5C109 105.851 103.851 111 97.5 111C91.1487 111 86 105.851 86 99.5C86 93.1487 91.1487 88 97.5 88C103.851 88 109 93.1487 109 99.5Z" fill="#003448"/>
<path d="M75.5 184C81.8513 184 87 178.851 87 172.5C87 166.149 81.8513 161 75.5 161C69.1487 161 64 166.149 64 172.5C64 178.851 69.1487 184 75.5 184Z" fill="#003448"/>
<path d="M180 301.5C180 307.851 174.851 313 168.5 313C162.149 313 157 307.851 157 301.5C157 295.149 162.149 290 168.5 290C174.851 290 180 295.149 180 301.5Z" fill="#003448"/>
<path d="M259 310.5C259 317.956 252.956 324 245.5 324C238.044 324 232 317.956 232 310.5C232 303.044 238.044 297 245.5 297C252.956 297 259 303.044 259 310.5Z" fill="#003448"/>
<path d="M45.5 189C51.8513 189 57 183.851 57 177.5C57 171.149 51.8513 166 45.5 166C39.1487 166 34 171.149 34 177.5C34 183.851 39.1487 189 45.5 189Z" fill="#003448"/>
<path d="M300 252.5C300 258.851 294.851 264 288.5 264C282.149 264 277 258.851 277 252.5C277 246.149 282.149 241 288.5 241C294.851 241 300 246.149 300 252.5Z" fill="#003448"/>
<path d="M99.5 324C106.404 324 112 318.404 112 311.5C112 304.596 106.404 299 99.5 299C92.5964 299 87 304.596 87 311.5C87 318.404 92.5964 324 99.5 324Z" fill="#003448"/>
<path d="M259.817 157.768C260.212 157.49 259.424 158.044 259.817 157.768C261.45 183.216 251.854 209.222 232.563 226.23L221.752 226.663L243.252 207.663L221.752 210.163L247.752 190.163L218.752 194.663L259.817 157.768Z" fill="#003448"/>
<path d="M192.252 205.662L153.252 229.162C167.252 244.162 192.252 249.162 211.252 236.662L196.752 235.162L209.752 222.162L188.752 230.162L206.752 211.662L176.752 222.662L192.252 205.662Z" fill="#003448"/>
<path fill-rule="evenodd" clip-rule="evenodd" d="M247.096 102.764C232.025 85.0756 210.455 74 186.5 74C140.937 74 104 114.071 104 163.5C104 170.799 104.805 177.893 106.325 184.685C108.666 182.926 111.076 181.262 113.442 179.537C112.496 174.352 112 168.99 112 163.5C112 118.489 145.355 82 186.5 82C220.427 82 249.057 106.809 258.058 140.749C260.423 138.901 262.681 137.089 264.827 135.32C261.957 125.926 257.595 117.074 251.966 109.03C273.623 100.683 288.528 98.03 291.49 103.058C297.365 113.032 254.031 149.448 194.701 184.396C135.371 219.344 82.512 239.59 76.6372 229.616C72.9688 223.389 88.4881 206.85 115.108 186.797C114.543 184.723 114.054 182.629 113.642 180.518C72.4369 210.553 47.643 236.693 53.4553 246.56C61.7881 260.707 129.872 236.049 205.526 191.485C281.179 146.922 335.754 99.3285 327.421 85.1823C321.89 75.7922 290.02 83.4862 247.096 102.764Z" fill="#003448"/>
<path d="M257.202 141.416C248.429 107.65 220.043 83 186.5 83C145.99 83 113 118.955 113 163.5C113 182.508 119.195 201.451 131.074 216.371C133.273 215.4 135.518 214.385 137.806 213.33C126.811 200.309 120 182.809 120 163.279C120 143.635 126.891 126.044 138 113L138 123.279L160 118.779L136.5 138.779L157.5 139.779L134.5 159.779L161 157.779L138 180.279L166.5 177.779L143.5 197.279H169.808C177.733 193.014 185.897 188.418 194.188 183.534C218.732 169.077 240.52 154.377 257.202 141.416Z" fill="#003448"/>
<path d="M132.315 230.992C146.81 244.699 165.761 253 186.5 253C232.063 253 269 212.929 269 163.5C269 159.597 268.77 155.753 268.323 151.982C265.903 153.75 263.426 155.53 260.894 157.322C261.045 159.436 261.121 161.573 261.121 163.73C261.121 188.924 251.481 211.095 235.065 226.045C231.08 229.743 226.722 232.998 222.045 235.739C204.626 245.943 184.216 248.16 165.304 241.902C160.763 240.399 156.398 238.438 152.257 236.061C147.96 233.612 143.908 230.719 140.152 227.437C137.501 228.663 134.888 229.849 132.315 230.992Z" fill="#003448"/>
</svg>
